<svg xmlns="http://www.w3.org/2000/svg" viewBox="0 0 24 24" width="24" height="24" fill="none" stroke="black" stroke-width="2" stroke-linecap="round" stroke-linejoin="round">
    <circle cx="12" cy="12" r="3" />
    <path d="M19.4 15a1.67 1.67 0 0 0 .33 1.82l.06.06a1.87 1.87 0 0 1-2.64 2.64l-.06-.06a1.67 1.67 0 0 0-1.82-.33 1.67 1.67 0 0 0-1 1.51V21a1.87 1.87 0 0 1-3.74 0v-.09a1.67 1.67 0 0 0-1-1.51 1.67 1.67 0 0 0-1.82.33l-.06.06a1.87 1.87 0 0 1-2.64-2.64l.06-.06a1.67 1.67 0 0 0 .33-1.82 1.67 1.67 0 0 0-1.51-1H3a1.87 1.87 0 0 1 0-3.74h.09a1.67 1.67 0 0 0 1.51-1 1.67 1.67 0 0 0-.33-1.82l-.06-.06a1.87 1.87 0 0 1 2.64-2.64l.06.06a1.67 1.67 0 0 0 1.82.33H10a1.67 1.67 0 0 0 1-1.51V3a1.87 1.87 0 0 1 3.74 0v.09a1.67 1.67 0 0 0 1 1.51 1.67 1.67 0 0 0 1.82-.33l.06-.06a1.87 1.87 0 0 1 2.64 2.64l-.06.06a1.67 1.67 0 0 0-.33 1.82v.1a1.67 1.67 0 0 0 1.51 1H21a1.87 1.87 0 0 1 0 3.74h-.09a1.67 1.67 0 0 0-1.51 1z" />
</svg>
